<svg xmlns="http://www.w3.org/2000/svg" xmlns:xlink="http://www.w3.org/1999/xlink" width="500" zoomAndPan="magnify" viewBox="0 0 375 374.999991" height="500" preserveAspectRatio="xMidYMid meet" version="1.0"><defs><g/></defs><g fill="#ffffff" fill-opacity="1"><g transform="translate(36.093752, 202.499987)"><g><path d="M 0.609375 8.40625 C -0.765625 8.40625 -1.957031 8.257812 -2.96875 7.96875 L -2.96875 2.9375 C -1.925781 3.195312 -0.976562 3.328125 -0.125 3.328125 C 1.207031 3.328125 2.160156 2.910156 2.734375 2.078125 C 3.304688 1.253906 3.59375 -0.0351562 3.59375 -1.796875 L 3.59375 -28.5625 L 9.65625 -28.5625 L 9.65625 -1.84375 C 9.65625 1.5 8.890625 4.039062 7.359375 5.78125 C 5.835938 7.53125 3.585938 8.40625 0.609375 8.40625 Z M 0.609375 8.40625 "/></g></g></g><g fill="#ffffff" fill-opacity="1"><g transform="translate(49.334646, 202.499987)"><g><path d="M 17 0 L 15.84375 -2.96875 L 15.6875 -2.96875 C 14.6875 -1.707031 13.65625 -0.832031 12.59375 -0.34375 C 11.53125 0.144531 10.144531 0.390625 8.4375 0.390625 C 6.34375 0.390625 4.691406 -0.207031 3.484375 -1.40625 C 2.285156 -2.601562 1.6875 -4.3125 1.6875 -6.53125 C 1.6875 -8.84375 2.492188 -10.546875 4.109375 -11.640625 C 5.734375 -12.742188 8.179688 -13.359375 11.453125 -13.484375 L 15.234375 -13.59375 L 15.234375 -14.546875 C 15.234375 -16.765625 14.101562 -17.875 11.84375 -17.875 C 10.09375 -17.875 8.039062 -17.347656 5.6875 -16.296875 L 3.71875 -20.3125 C 6.226562 -21.625 9.015625 -22.28125 12.078125 -22.28125 C 15.003906 -22.28125 17.25 -21.640625 18.8125 -20.359375 C 20.375 -19.085938 21.15625 -17.148438 21.15625 -14.546875 L 21.15625 0 Z M 15.234375 -10.125 L 12.9375 -10.046875 C 11.195312 -9.992188 9.90625 -9.679688 9.0625 -9.109375 C 8.21875 -8.535156 7.796875 -7.660156 7.796875 -6.484375 C 7.796875 -4.804688 8.757812 -3.96875 10.6875 -3.96875 C 12.0625 -3.96875 13.160156 -4.363281 13.984375 -5.15625 C 14.816406 -5.945312 15.234375 -7.003906 15.234375 -8.328125 Z M 15.234375 -10.125 "/></g></g></g><g fill="#ffffff" fill-opacity="1"><g transform="translate(73.492446, 202.499987)"><g><path d="M 2.875 -27.484375 C 2.875 -29.421875 3.953125 -30.390625 6.109375 -30.390625 C 8.273438 -30.390625 9.359375 -29.421875 9.359375 -27.484375 C 9.359375 -26.554688 9.085938 -25.832031 8.546875 -25.3125 C 8.003906 -24.800781 7.191406 -24.546875 6.109375 -24.546875 C 3.953125 -24.546875 2.875 -25.523438 2.875 -27.484375 Z M 9.078125 0 L 3.125 0 L 3.125 -21.84375 L 9.078125 -21.84375 Z M 9.078125 0 "/></g></g></g><g fill="#ffffff" fill-opacity="1"><g transform="translate(85.69829, 202.499987)"><g><path d="M 22.671875 0 L 16.71875 0 L 16.71875 -12.75 C 16.71875 -14.332031 16.453125 -15.515625 15.921875 -16.296875 C 15.398438 -17.085938 14.570312 -17.484375 13.4375 -17.484375 C 11.914062 -17.484375 10.804688 -16.921875 10.109375 -15.796875 C 9.421875 -14.679688 9.078125 -12.84375 9.078125 -10.28125 L 9.078125 0 L 3.125 0 L 3.125 -21.84375 L 7.671875 -21.84375 L 8.484375 -19.046875 L 8.8125 -19.046875 C 9.394531 -20.046875 10.238281 -20.828125 11.34375 -21.390625 C 12.457031 -21.960938 13.726562 -22.25 15.15625 -22.25 C 18.425781 -22.25 20.640625 -21.179688 21.796875 -19.046875 L 22.328125 -19.046875 C 22.910156 -20.054688 23.769531 -20.84375 24.90625 -21.40625 C 26.050781 -21.96875 27.335938 -22.25 28.765625 -22.25 C 31.242188 -22.25 33.117188 -21.613281 34.390625 -20.34375 C 35.660156 -19.070312 36.296875 -17.035156 36.296875 -14.234375 L 36.296875 0 L 30.3125 0 L 30.3125 -12.75 C 30.3125 -14.332031 30.046875 -15.515625 29.515625 -16.296875 C 28.992188 -17.085938 28.164062 -17.484375 27.03125 -17.484375 C 25.570312 -17.484375 24.476562 -16.960938 23.75 -15.921875 C 23.03125 -14.878906 22.671875 -13.222656 22.671875 -10.953125 Z M 22.671875 0 "/></g></g></g><g fill="#ffffff" fill-opacity="1"><g transform="translate(124.971802, 202.499987)"><g><path d="M 12.171875 -18.015625 C 10.910156 -18.015625 9.921875 -17.613281 9.203125 -16.8125 C 8.484375 -16.007812 8.070312 -14.875 7.96875 -13.40625 L 16.328125 -13.40625 C 16.304688 -14.875 15.921875 -16.007812 15.171875 -16.8125 C 14.429688 -17.613281 13.429688 -18.015625 12.171875 -18.015625 Z M 13.015625 0.390625 C 9.492188 0.390625 6.742188 -0.578125 4.765625 -2.515625 C 2.785156 -4.460938 1.796875 -7.210938 1.796875 -10.765625 C 1.796875 -14.421875 2.707031 -17.25 4.53125 -19.25 C 6.363281 -21.25 8.894531 -22.25 12.125 -22.25 C 15.21875 -22.25 17.625 -21.367188 19.34375 -19.609375 C 21.0625 -17.847656 21.921875 -15.421875 21.921875 -12.328125 L 21.921875 -9.4375 L 7.828125 -9.4375 C 7.898438 -7.738281 8.40625 -6.414062 9.34375 -5.46875 C 10.28125 -4.519531 11.59375 -4.046875 13.28125 -4.046875 C 14.59375 -4.046875 15.832031 -4.179688 17 -4.453125 C 18.175781 -4.722656 19.40625 -5.160156 20.6875 -5.765625 L 20.6875 -1.15625 C 19.644531 -0.632812 18.53125 -0.25 17.34375 0 C 16.15625 0.257812 14.710938 0.390625 13.015625 0.390625 Z M 13.015625 0.390625 "/></g></g></g><g fill="#ffffff" fill-opacity="1"><g transform="translate(159.451576, 202.499987)"><g><path d="M 20.046875 -7.59375 C 20.046875 -5.082031 19.132812 -3.125 17.3125 -1.71875 C 15.488281 -0.3125 13.015625 0.390625 9.890625 0.390625 C 6.503906 0.390625 3.898438 -0.046875 2.078125 -0.921875 L 2.078125 -4.125 C 3.242188 -3.625 4.515625 -3.226562 5.890625 -2.9375 C 7.273438 -2.65625 8.644531 -2.515625 10 -2.515625 C 12.21875 -2.515625 13.882812 -2.9375 15 -3.78125 C 16.125 -4.625 16.6875 -5.789062 16.6875 -7.28125 C 16.6875 -8.269531 16.484375 -9.082031 16.078125 -9.71875 C 15.679688 -10.351562 15.019531 -10.9375 14.09375 -11.46875 C 13.164062 -12 11.75 -12.601562 9.84375 -13.28125 C 7.1875 -14.226562 5.285156 -15.351562 4.140625 -16.65625 C 3.003906 -17.957031 2.4375 -19.660156 2.4375 -21.765625 C 2.4375 -23.960938 3.265625 -25.710938 4.921875 -27.015625 C 6.578125 -28.316406 8.765625 -28.96875 11.484375 -28.96875 C 14.328125 -28.96875 16.9375 -28.445312 19.3125 -27.40625 L 18.28125 -24.515625 C 15.925781 -25.503906 13.632812 -26 11.40625 -26 C 9.644531 -26 8.269531 -25.617188 7.28125 -24.859375 C 6.289062 -24.109375 5.796875 -23.0625 5.796875 -21.71875 C 5.796875 -20.726562 5.976562 -19.914062 6.34375 -19.28125 C 6.707031 -18.65625 7.320312 -18.078125 8.1875 -17.546875 C 9.0625 -17.023438 10.390625 -16.441406 12.171875 -15.796875 C 15.160156 -14.734375 17.21875 -13.585938 18.34375 -12.359375 C 19.476562 -11.140625 20.046875 -9.550781 20.046875 -7.59375 Z M 20.046875 -7.59375 "/></g></g></g><g fill="#ffffff" fill-opacity="1"><g transform="translate(181.402556, 202.499987)"><g><path d="M 12.484375 0.390625 C 9.316406 0.390625 6.816406 -0.570312 4.984375 -2.5 C 3.160156 -4.425781 2.25 -7.101562 2.25 -10.53125 C 2.25 -13.976562 3.097656 -16.71875 4.796875 -18.75 C 6.492188 -20.78125 8.773438 -21.796875 11.640625 -21.796875 C 14.328125 -21.796875 16.453125 -20.910156 18.015625 -19.140625 C 19.578125 -17.378906 20.359375 -15.054688 20.359375 -12.171875 L 20.359375 -10.125 L 5.609375 -10.125 C 5.671875 -7.601562 6.300781 -5.691406 7.5 -4.390625 C 8.707031 -3.085938 10.40625 -2.4375 12.59375 -2.4375 C 14.90625 -2.4375 17.1875 -2.921875 19.4375 -3.890625 L 19.4375 -1 C 18.289062 -0.5 17.207031 -0.144531 16.1875 0.0625 C 15.164062 0.28125 13.929688 0.390625 12.484375 0.390625 Z M 11.609375 -19.078125 C 9.890625 -19.078125 8.515625 -18.515625 7.484375 -17.390625 C 6.460938 -16.273438 5.863281 -14.726562 5.6875 -12.75 L 16.875 -12.75 C 16.875 -14.800781 16.414062 -16.367188 15.5 -17.453125 C 14.59375 -18.535156 13.296875 -19.078125 11.609375 -19.078125 Z M 11.609375 -19.078125 "/></g></g></g><g fill="#ffffff" fill-opacity="1"><g transform="translate(203.841775, 202.499987)"><g><path d="M 13.203125 -21.796875 C 14.148438 -21.796875 15.003906 -21.71875 15.765625 -21.5625 L 15.3125 -18.5625 C 14.425781 -18.75 13.644531 -18.84375 12.96875 -18.84375 C 11.238281 -18.84375 9.757812 -18.140625 8.53125 -16.734375 C 7.300781 -15.328125 6.6875 -13.578125 6.6875 -11.484375 L 6.6875 0 L 3.4375 0 L 3.4375 -21.40625 L 6.109375 -21.40625 L 6.484375 -17.4375 L 6.640625 -17.4375 C 7.429688 -18.832031 8.382812 -19.90625 9.5 -20.65625 C 10.625 -21.414062 11.859375 -21.796875 13.203125 -21.796875 Z M 13.203125 -21.796875 "/></g></g></g><g fill="#ffffff" fill-opacity="1"><g transform="translate(220.168304, 202.499987)"><g><path d="M 13.203125 -21.796875 C 14.148438 -21.796875 15.003906 -21.71875 15.765625 -21.5625 L 15.3125 -18.5625 C 14.425781 -18.75 13.644531 -18.84375 12.96875 -18.84375 C 11.238281 -18.84375 9.757812 -18.140625 8.53125 -16.734375 C 7.300781 -15.328125 6.6875 -13.578125 6.6875 -11.484375 L 6.6875 0 L 3.4375 0 L 3.4375 -21.40625 L 6.109375 -21.40625 L 6.484375 -17.4375 L 6.640625 -17.4375 C 7.429688 -18.832031 8.382812 -19.90625 9.5 -20.65625 C 10.625 -21.414062 11.859375 -21.796875 13.203125 -21.796875 Z M 13.203125 -21.796875 "/></g></g></g><g fill="#ffffff" fill-opacity="1"><g transform="translate(236.494833, 202.499987)"><g><path d="M 16.609375 0 L 15.953125 -3.046875 L 15.796875 -3.046875 C 14.734375 -1.703125 13.671875 -0.789062 12.609375 -0.3125 C 11.546875 0.15625 10.222656 0.390625 8.640625 0.390625 C 6.515625 0.390625 4.847656 -0.15625 3.640625 -1.25 C 2.441406 -2.34375 1.84375 -3.898438 1.84375 -5.921875 C 1.84375 -10.242188 5.296875 -12.507812 12.203125 -12.71875 L 15.84375 -12.828125 L 15.84375 -14.15625 C 15.84375 -15.84375 15.476562 -17.082031 14.75 -17.875 C 14.03125 -18.675781 12.878906 -19.078125 11.296875 -19.078125 C 9.503906 -19.078125 7.484375 -18.53125 5.234375 -17.4375 L 4.234375 -19.921875 C 5.296875 -20.492188 6.453125 -20.941406 7.703125 -21.265625 C 8.960938 -21.597656 10.222656 -21.765625 11.484375 -21.765625 C 14.035156 -21.765625 15.925781 -21.195312 17.15625 -20.0625 C 18.382812 -18.925781 19 -17.109375 19 -14.609375 L 19 0 Z M 9.28125 -2.28125 C 11.300781 -2.28125 12.882812 -2.832031 14.03125 -3.9375 C 15.1875 -5.050781 15.765625 -6.601562 15.765625 -8.59375 L 15.765625 -10.53125 L 12.515625 -10.390625 C 9.941406 -10.296875 8.082031 -9.894531 6.9375 -9.1875 C 5.800781 -8.476562 5.234375 -7.375 5.234375 -5.875 C 5.234375 -4.707031 5.585938 -3.816406 6.296875 -3.203125 C 7.003906 -2.585938 8 -2.28125 9.28125 -2.28125 Z M 9.28125 -2.28125 "/></g></g></g><g fill="#ffffff" fill-opacity="1"><g transform="translate(258.738759, 202.499987)"><g><path d="M 18.09375 0 L 18.09375 -13.84375 C 18.09375 -15.59375 17.691406 -16.894531 16.890625 -17.75 C 16.097656 -18.613281 14.859375 -19.046875 13.171875 -19.046875 C 10.929688 -19.046875 9.289062 -18.4375 8.25 -17.21875 C 7.207031 -16.007812 6.6875 -14.015625 6.6875 -11.234375 L 6.6875 0 L 3.4375 0 L 3.4375 -21.40625 L 6.078125 -21.40625 L 6.609375 -18.484375 L 6.765625 -18.484375 C 7.421875 -19.535156 8.347656 -20.347656 9.546875 -20.921875 C 10.742188 -21.503906 12.082031 -21.796875 13.5625 -21.796875 C 16.132812 -21.796875 18.070312 -21.171875 19.375 -19.921875 C 20.675781 -18.679688 21.328125 -16.695312 21.328125 -13.96875 L 21.328125 0 Z M 18.09375 0 "/></g></g></g><g fill="#ffffff" fill-opacity="1"><g transform="translate(283.287146, 202.499987)"><g><path d="M 21.921875 -10.71875 C 21.921875 -7.226562 21.039062 -4.503906 19.28125 -2.546875 C 17.519531 -0.585938 15.09375 0.390625 12 0.390625 C 10.082031 0.390625 8.378906 -0.0546875 6.890625 -0.953125 C 5.410156 -1.859375 4.265625 -3.148438 3.453125 -4.828125 C 2.648438 -6.503906 2.25 -8.46875 2.25 -10.71875 C 2.25 -14.207031 3.117188 -16.925781 4.859375 -18.875 C 6.609375 -20.820312 9.03125 -21.796875 12.125 -21.796875 C 15.125 -21.796875 17.503906 -20.800781 19.265625 -18.8125 C 21.035156 -16.820312 21.921875 -14.125 21.921875 -10.71875 Z M 5.609375 -10.71875 C 5.609375 -7.988281 6.15625 -5.90625 7.25 -4.46875 C 8.34375 -3.039062 9.953125 -2.328125 12.078125 -2.328125 C 14.191406 -2.328125 15.800781 -3.039062 16.90625 -4.46875 C 18.007812 -5.894531 18.5625 -7.976562 18.5625 -10.71875 C 18.5625 -13.445312 18.007812 -15.515625 16.90625 -16.921875 C 15.800781 -18.335938 14.175781 -19.046875 12.03125 -19.046875 C 9.90625 -19.046875 8.300781 -18.347656 7.21875 -16.953125 C 6.144531 -15.554688 5.609375 -13.476562 5.609375 -10.71875 Z M 5.609375 -10.71875 "/></g></g></g><g fill="#ff3131" fill-opacity="1"><g transform="translate(312.125785, 202.499987)"><g><path d="M 2.28125 -2.796875 C 2.28125 -3.890625 2.570312 -4.710938 3.15625 -5.265625 C 3.75 -5.828125 4.601562 -6.109375 5.71875 -6.109375 C 6.800781 -6.109375 7.640625 -5.820312 8.234375 -5.25 C 8.828125 -4.675781 9.125 -3.859375 9.125 -2.796875 C 9.125 -1.765625 8.820312 -0.953125 8.21875 -0.359375 C 7.625 0.234375 6.789062 0.53125 5.71875 0.53125 C 4.625 0.53125 3.773438 0.238281 3.171875 -0.34375 C 2.578125 -0.925781 2.28125 -1.742188 2.28125 -2.796875 Z M 2.28125 -2.796875 "/></g></g></g></svg>