<svg xmlns="http://www.w3.org/2000/svg" xmlns:xlink="http://www.w3.org/1999/xlink" width="220" zoomAndPan="magnify" viewBox="0 0 165 36.000001" height="48" preserveAspectRatio="xMidYMid meet" version="1.0"><defs><g/><clipPath id="8d91d5feda"><path d="M 158 19 L 162.769531 19 L 162.769531 24 L 158 24 Z M 158 19 " clip-rule="nonzero"/></clipPath></defs><g fill="#ffffff" fill-opacity="1"><g transform="translate(8.043649, 24.043191)"><g><path d="M 0.34375 4.8125 C -0.4375 4.8125 -1.117188 4.726562 -1.703125 4.5625 L -1.703125 1.6875 C -1.109375 1.832031 -0.5625 1.90625 -0.0625 1.90625 C 0.695312 1.90625 1.238281 1.664062 1.5625 1.1875 C 1.894531 0.71875 2.0625 -0.0195312 2.0625 -1.03125 L 2.0625 -16.375 L 5.53125 -16.375 L 5.53125 -1.046875 C 5.53125 0.859375 5.09375 2.3125 4.21875 3.3125 C 3.34375 4.3125 2.050781 4.8125 0.34375 4.8125 Z M 0.34375 4.8125 "/></g></g></g><g fill="#ffffff" fill-opacity="1"><g transform="translate(15.635562, 24.043191)"><g><path d="M 9.75 0 L 9.078125 -1.703125 L 9 -1.703125 C 8.414062 -0.972656 7.820312 -0.46875 7.21875 -0.1875 C 6.613281 0.0820312 5.820312 0.21875 4.84375 0.21875 C 3.632812 0.21875 2.6875 -0.125 2 -0.8125 C 1.3125 -1.5 0.96875 -2.472656 0.96875 -3.734375 C 0.96875 -5.066406 1.429688 -6.046875 2.359375 -6.671875 C 3.285156 -7.304688 4.6875 -7.660156 6.5625 -7.734375 L 8.734375 -7.796875 L 8.734375 -8.34375 C 8.734375 -9.613281 8.082031 -10.25 6.78125 -10.25 C 5.78125 -10.25 4.609375 -9.945312 3.265625 -9.34375 L 2.125 -11.640625 C 3.570312 -12.398438 5.171875 -12.78125 6.921875 -12.78125 C 8.597656 -12.78125 9.882812 -12.410156 10.78125 -11.671875 C 11.675781 -10.941406 12.125 -9.832031 12.125 -8.34375 L 12.125 0 Z M 8.734375 -5.796875 L 7.421875 -5.75 C 6.421875 -5.726562 5.675781 -5.550781 5.1875 -5.21875 C 4.707031 -4.882812 4.46875 -4.382812 4.46875 -3.71875 C 4.46875 -2.757812 5.019531 -2.28125 6.125 -2.28125 C 6.914062 -2.28125 7.546875 -2.503906 8.015625 -2.953125 C 8.492188 -3.410156 8.734375 -4.015625 8.734375 -4.765625 Z M 8.734375 -5.796875 "/></g></g></g><g fill="#ffffff" fill-opacity="1"><g transform="translate(29.486886, 24.043191)"><g><path d="M 1.640625 -15.765625 C 1.640625 -16.867188 2.257812 -17.421875 3.5 -17.421875 C 4.738281 -17.421875 5.359375 -16.867188 5.359375 -15.765625 C 5.359375 -15.234375 5.203125 -14.816406 4.890625 -14.515625 C 4.585938 -14.222656 4.125 -14.078125 3.5 -14.078125 C 2.257812 -14.078125 1.640625 -14.640625 1.640625 -15.765625 Z M 5.203125 0 L 1.796875 0 L 1.796875 -12.515625 L 5.203125 -12.515625 Z M 5.203125 0 "/></g></g></g><g fill="#ffffff" fill-opacity="1"><g transform="translate(36.485334, 24.043191)"><g><path d="M 13 0 L 9.59375 0 L 9.59375 -7.3125 C 9.59375 -8.21875 9.441406 -8.894531 9.140625 -9.34375 C 8.835938 -9.800781 8.359375 -10.03125 7.703125 -10.03125 C 6.828125 -10.03125 6.191406 -9.707031 5.796875 -9.0625 C 5.398438 -8.414062 5.203125 -7.359375 5.203125 -5.890625 L 5.203125 0 L 1.796875 0 L 1.796875 -12.515625 L 4.40625 -12.515625 L 4.859375 -10.921875 L 5.046875 -10.921875 C 5.390625 -11.492188 5.875 -11.941406 6.5 -12.265625 C 7.132812 -12.585938 7.863281 -12.75 8.6875 -12.75 C 10.5625 -12.75 11.832031 -12.140625 12.5 -10.921875 L 12.796875 -10.921875 C 13.140625 -11.503906 13.632812 -11.953125 14.28125 -12.265625 C 14.9375 -12.585938 15.675781 -12.75 16.5 -12.75 C 17.914062 -12.75 18.988281 -12.382812 19.71875 -11.65625 C 20.445312 -10.9375 20.8125 -9.773438 20.8125 -8.171875 L 20.8125 0 L 17.375 0 L 17.375 -7.3125 C 17.375 -8.21875 17.222656 -8.894531 16.921875 -9.34375 C 16.617188 -9.800781 16.144531 -10.03125 15.5 -10.03125 C 14.664062 -10.03125 14.039062 -9.726562 13.625 -9.125 C 13.207031 -8.53125 13 -7.582031 13 -6.28125 Z M 13 0 "/></g></g></g><g fill="#ffffff" fill-opacity="1"><g transform="translate(59.003533, 24.043191)"><g><path d="M 6.984375 -10.328125 C 6.253906 -10.328125 5.679688 -10.097656 5.265625 -9.640625 C 4.859375 -9.179688 4.625 -8.53125 4.5625 -7.6875 L 9.359375 -7.6875 C 9.347656 -8.53125 9.128906 -9.179688 8.703125 -9.640625 C 8.273438 -10.097656 7.703125 -10.328125 6.984375 -10.328125 Z M 7.453125 0.21875 C 5.441406 0.21875 3.867188 -0.332031 2.734375 -1.4375 C 1.597656 -2.550781 1.03125 -4.128906 1.03125 -6.171875 C 1.03125 -8.265625 1.550781 -9.882812 2.59375 -11.03125 C 3.644531 -12.175781 5.097656 -12.75 6.953125 -12.75 C 8.722656 -12.75 10.097656 -12.242188 11.078125 -11.234375 C 12.066406 -10.234375 12.5625 -8.84375 12.5625 -7.0625 L 12.5625 -5.40625 L 4.484375 -5.40625 C 4.523438 -4.4375 4.8125 -3.675781 5.34375 -3.125 C 5.882812 -2.582031 6.640625 -2.3125 7.609375 -2.3125 C 8.367188 -2.3125 9.082031 -2.390625 9.75 -2.546875 C 10.425781 -2.703125 11.128906 -2.953125 11.859375 -3.296875 L 11.859375 -0.65625 C 11.265625 -0.363281 10.625 -0.144531 9.9375 0 C 9.257812 0.144531 8.429688 0.21875 7.453125 0.21875 Z M 7.453125 0.21875 "/></g></g></g><g fill="#ffffff" fill-opacity="1"><g transform="translate(74.685162, 23.104825)"><g><path d="M 11.390625 -4.328125 C 11.390625 -2.890625 10.867188 -1.769531 9.828125 -0.96875 C 8.796875 -0.175781 7.394531 0.21875 5.625 0.21875 C 3.695312 0.21875 2.210938 -0.0234375 1.171875 -0.515625 L 1.171875 -2.34375 C 1.835938 -2.0625 2.5625 -1.835938 3.34375 -1.671875 C 4.132812 -1.515625 4.914062 -1.4375 5.6875 -1.4375 C 6.945312 -1.4375 7.894531 -1.671875 8.53125 -2.140625 C 9.164062 -2.617188 9.484375 -3.285156 9.484375 -4.140625 C 9.484375 -4.703125 9.367188 -5.160156 9.140625 -5.515625 C 8.921875 -5.878906 8.546875 -6.210938 8.015625 -6.515625 C 7.484375 -6.816406 6.675781 -7.160156 5.59375 -7.546875 C 4.082031 -8.085938 3.003906 -8.726562 2.359375 -9.46875 C 1.710938 -10.21875 1.390625 -11.1875 1.390625 -12.375 C 1.390625 -13.625 1.859375 -14.617188 2.796875 -15.359375 C 3.734375 -16.097656 4.976562 -16.46875 6.53125 -16.46875 C 8.144531 -16.46875 9.628906 -16.171875 10.984375 -15.578125 L 10.390625 -13.9375 C 9.054688 -14.5 7.753906 -14.78125 6.484375 -14.78125 C 5.484375 -14.78125 4.703125 -14.566406 4.140625 -14.140625 C 3.578125 -13.710938 3.296875 -13.117188 3.296875 -12.359375 C 3.296875 -11.796875 3.398438 -11.332031 3.609375 -10.96875 C 3.816406 -10.613281 4.164062 -10.285156 4.65625 -9.984375 C 5.15625 -9.679688 5.910156 -9.347656 6.921875 -8.984375 C 8.617188 -8.378906 9.785156 -7.726562 10.421875 -7.03125 C 11.066406 -6.332031 11.390625 -5.429688 11.390625 -4.328125 Z M 11.390625 -4.328125 "/></g></g></g><g fill="#ffffff" fill-opacity="1"><g transform="translate(87.16938, 23.104825)"><g><path d="M 7.09375 0.21875 C 5.300781 0.21875 3.882812 -0.328125 2.84375 -1.421875 C 1.800781 -2.515625 1.28125 -4.035156 1.28125 -5.984375 C 1.28125 -7.953125 1.757812 -9.507812 2.71875 -10.65625 C 3.6875 -11.8125 4.988281 -12.390625 6.625 -12.390625 C 8.144531 -12.390625 9.347656 -11.890625 10.234375 -10.890625 C 11.128906 -9.890625 11.578125 -8.566406 11.578125 -6.921875 L 11.578125 -5.75 L 3.1875 -5.75 C 3.226562 -4.320312 3.585938 -3.238281 4.265625 -2.5 C 4.953125 -1.757812 5.921875 -1.390625 7.171875 -1.390625 C 8.472656 -1.390625 9.765625 -1.660156 11.046875 -2.203125 L 11.046875 -0.5625 C 10.398438 -0.28125 9.785156 -0.0820312 9.203125 0.03125 C 8.617188 0.15625 7.914062 0.21875 7.09375 0.21875 Z M 6.59375 -10.859375 C 5.613281 -10.859375 4.832031 -10.535156 4.25 -9.890625 C 3.675781 -9.253906 3.335938 -8.375 3.234375 -7.25 L 9.59375 -7.25 C 9.59375 -8.414062 9.332031 -9.304688 8.8125 -9.921875 C 8.300781 -10.546875 7.5625 -10.859375 6.59375 -10.859375 Z M 6.59375 -10.859375 "/></g></g></g><g fill="#ffffff" fill-opacity="1"><g transform="translate(99.931276, 23.104825)"><g><path d="M 7.515625 -12.390625 C 8.046875 -12.390625 8.53125 -12.347656 8.96875 -12.265625 L 8.703125 -10.546875 C 8.203125 -10.660156 7.757812 -10.71875 7.375 -10.71875 C 6.394531 -10.71875 5.550781 -10.316406 4.84375 -9.515625 C 4.144531 -8.710938 3.796875 -7.71875 3.796875 -6.53125 L 3.796875 0 L 1.953125 0 L 1.953125 -12.171875 L 3.484375 -12.171875 L 3.6875 -9.921875 L 3.78125 -9.921875 C 4.226562 -10.710938 4.769531 -11.320312 5.40625 -11.75 C 6.039062 -12.175781 6.742188 -12.390625 7.515625 -12.390625 Z M 7.515625 -12.390625 "/></g></g></g><g fill="#ffffff" fill-opacity="1"><g transform="translate(109.21669, 23.104825)"><g><path d="M 7.515625 -12.390625 C 8.046875 -12.390625 8.53125 -12.347656 8.96875 -12.265625 L 8.703125 -10.546875 C 8.203125 -10.660156 7.757812 -10.71875 7.375 -10.71875 C 6.394531 -10.71875 5.550781 -10.316406 4.84375 -9.515625 C 4.144531 -8.710938 3.796875 -7.71875 3.796875 -6.53125 L 3.796875 0 L 1.953125 0 L 1.953125 -12.171875 L 3.484375 -12.171875 L 3.6875 -9.921875 L 3.78125 -9.921875 C 4.226562 -10.710938 4.769531 -11.320312 5.40625 -11.75 C 6.039062 -12.175781 6.742188 -12.390625 7.515625 -12.390625 Z M 7.515625 -12.390625 "/></g></g></g><g fill="#ffffff" fill-opacity="1"><g transform="translate(118.502105, 23.104825)"><g><path d="M 9.4375 0 L 9.078125 -1.734375 L 8.984375 -1.734375 C 8.378906 -0.972656 7.773438 -0.457031 7.171875 -0.1875 C 6.566406 0.0820312 5.8125 0.21875 4.90625 0.21875 C 3.695312 0.21875 2.75 -0.0859375 2.0625 -0.703125 C 1.382812 -1.328125 1.046875 -2.210938 1.046875 -3.359375 C 1.046875 -5.816406 3.007812 -7.109375 6.9375 -7.234375 L 9.015625 -7.296875 L 9.015625 -8.046875 C 9.015625 -9.003906 8.804688 -9.710938 8.390625 -10.171875 C 7.984375 -10.628906 7.328125 -10.859375 6.421875 -10.859375 C 5.410156 -10.859375 4.265625 -10.546875 2.984375 -9.921875 L 2.40625 -11.328125 C 3.007812 -11.648438 3.664062 -11.90625 4.375 -12.09375 C 5.09375 -12.28125 5.8125 -12.375 6.53125 -12.375 C 7.976562 -12.375 9.050781 -12.050781 9.75 -11.40625 C 10.457031 -10.757812 10.8125 -9.726562 10.8125 -8.3125 L 10.8125 0 Z M 5.28125 -1.296875 C 6.425781 -1.296875 7.328125 -1.609375 7.984375 -2.234375 C 8.640625 -2.867188 8.96875 -3.753906 8.96875 -4.890625 L 8.96875 -5.984375 L 7.125 -5.90625 C 5.65625 -5.851562 4.597656 -5.625 3.953125 -5.21875 C 3.304688 -4.820312 2.984375 -4.195312 2.984375 -3.34375 C 2.984375 -2.675781 3.179688 -2.164062 3.578125 -1.8125 C 3.984375 -1.46875 4.550781 -1.296875 5.28125 -1.296875 Z M 5.28125 -1.296875 "/></g></g></g><g fill="#ffffff" fill-opacity="1"><g transform="translate(131.152932, 23.104825)"><g><path d="M 10.28125 0 L 10.28125 -7.875 C 10.28125 -8.863281 10.054688 -9.601562 9.609375 -10.09375 C 9.160156 -10.582031 8.453125 -10.828125 7.484375 -10.828125 C 6.210938 -10.828125 5.28125 -10.484375 4.6875 -9.796875 C 4.09375 -9.109375 3.796875 -7.972656 3.796875 -6.390625 L 3.796875 0 L 1.953125 0 L 1.953125 -12.171875 L 3.453125 -12.171875 L 3.75 -10.515625 L 3.84375 -10.515625 C 4.21875 -11.109375 4.742188 -11.566406 5.421875 -11.890625 C 6.109375 -12.222656 6.867188 -12.390625 7.703125 -12.390625 C 9.171875 -12.390625 10.273438 -12.035156 11.015625 -11.328125 C 11.753906 -10.628906 12.125 -9.5 12.125 -7.9375 L 12.125 0 Z M 10.28125 0 "/></g></g></g><g fill="#ffffff" fill-opacity="1"><g transform="translate(145.11438, 23.104825)"><g><path d="M 12.46875 -6.09375 C 12.46875 -4.113281 11.96875 -2.566406 10.96875 -1.453125 C 9.96875 -0.335938 8.585938 0.21875 6.828125 0.21875 C 5.734375 0.21875 4.765625 -0.0351562 3.921875 -0.546875 C 3.078125 -1.054688 2.425781 -1.785156 1.96875 -2.734375 C 1.507812 -3.691406 1.28125 -4.8125 1.28125 -6.09375 C 1.28125 -8.082031 1.773438 -9.628906 2.765625 -10.734375 C 3.753906 -11.835938 5.128906 -12.390625 6.890625 -12.390625 C 8.597656 -12.390625 9.953125 -11.820312 10.953125 -10.6875 C 11.960938 -9.5625 12.46875 -8.03125 12.46875 -6.09375 Z M 3.1875 -6.09375 C 3.1875 -4.539062 3.492188 -3.359375 4.109375 -2.546875 C 4.734375 -1.734375 5.648438 -1.328125 6.859375 -1.328125 C 8.066406 -1.328125 8.984375 -1.726562 9.609375 -2.53125 C 10.234375 -3.34375 10.546875 -4.53125 10.546875 -6.09375 C 10.546875 -7.644531 10.234375 -8.820312 9.609375 -9.625 C 8.984375 -10.425781 8.0625 -10.828125 6.84375 -10.828125 C 5.632812 -10.828125 4.722656 -10.429688 4.109375 -9.640625 C 3.492188 -8.847656 3.1875 -7.664062 3.1875 -6.09375 Z M 3.1875 -6.09375 "/></g></g></g><g clip-path="url(#8d91d5feda)"><g fill="#ff3131" fill-opacity="1"><g transform="translate(157.096618, 23.278234)"><g><path d="M 1.28125 -1.5625 C 1.28125 -2.175781 1.441406 -2.640625 1.765625 -2.953125 C 2.097656 -3.273438 2.582031 -3.4375 3.21875 -3.4375 C 3.820312 -3.4375 4.289062 -3.273438 4.625 -2.953125 C 4.957031 -2.628906 5.125 -2.164062 5.125 -1.5625 C 5.125 -0.988281 4.953125 -0.535156 4.609375 -0.203125 C 4.273438 0.128906 3.8125 0.296875 3.21875 0.296875 C 2.601562 0.296875 2.125 0.132812 1.78125 -0.1875 C 1.445312 -0.519531 1.28125 -0.976562 1.28125 -1.5625 Z M 1.28125 -1.5625 "/></g></g></g></g></svg>