<svg xmlns="http://www.w3.org/2000/svg" xmlns:xlink="http://www.w3.org/1999/xlink" width="220" zoomAndPan="magnify" viewBox="0 0 165 36.000001" height="48" preserveAspectRatio="xMidYMid meet" version="1.0"><defs><g/></defs><g fill="#ffffff" fill-opacity="1"><g transform="translate(43.518897, 22.098116)"><g><path d="M 0.1875 2.5625 C -0.226562 2.5625 -0.59375 2.519531 -0.90625 2.4375 L -0.90625 0.890625 C -0.582031 0.972656 -0.289062 1.015625 -0.03125 1.015625 C 0.375 1.015625 0.660156 0.882812 0.828125 0.625 C 1.003906 0.375 1.09375 -0.015625 1.09375 -0.546875 L 1.09375 -8.71875 L 2.953125 -8.71875 L 2.953125 -0.5625 C 2.953125 0.457031 2.71875 1.234375 2.25 1.765625 C 1.78125 2.296875 1.09375 2.5625 0.1875 2.5625 Z M 0.1875 2.5625 "/></g></g></g><g fill="#ffffff" fill-opacity="1"><g transform="translate(47.565844, 22.098116)"><g><path d="M 5.1875 0 L 4.84375 -0.90625 L 4.796875 -0.90625 C 4.484375 -0.519531 4.164062 -0.25 3.84375 -0.09375 C 3.519531 0.0507812 3.097656 0.125 2.578125 0.125 C 1.929688 0.125 1.425781 -0.0546875 1.0625 -0.421875 C 0.695312 -0.796875 0.515625 -1.320312 0.515625 -2 C 0.515625 -2.707031 0.757812 -3.226562 1.25 -3.5625 C 1.75 -3.894531 2.5 -4.078125 3.5 -4.109375 L 4.65625 -4.15625 L 4.65625 -4.4375 C 4.65625 -5.113281 4.304688 -5.453125 3.609375 -5.453125 C 3.078125 -5.453125 2.453125 -5.289062 1.734375 -4.96875 L 1.140625 -6.203125 C 1.898438 -6.609375 2.75 -6.8125 3.6875 -6.8125 C 4.582031 -6.8125 5.269531 -6.613281 5.75 -6.21875 C 6.226562 -5.832031 6.46875 -5.238281 6.46875 -4.4375 L 6.46875 0 Z M 4.65625 -3.09375 L 3.953125 -3.0625 C 3.421875 -3.050781 3.023438 -2.957031 2.765625 -2.78125 C 2.503906 -2.601562 2.375 -2.335938 2.375 -1.984375 C 2.375 -1.472656 2.671875 -1.21875 3.265625 -1.21875 C 3.679688 -1.21875 4.015625 -1.335938 4.265625 -1.578125 C 4.523438 -1.816406 4.65625 -2.140625 4.65625 -2.546875 Z M 4.65625 -3.09375 "/></g></g></g><g fill="#ffffff" fill-opacity="1"><g transform="translate(54.949436, 22.098116)"><g><path d="M 0.875 -8.390625 C 0.875 -8.984375 1.207031 -9.28125 1.875 -9.28125 C 2.53125 -9.28125 2.859375 -8.984375 2.859375 -8.390625 C 2.859375 -8.109375 2.773438 -7.890625 2.609375 -7.734375 C 2.441406 -7.578125 2.195312 -7.5 1.875 -7.5 C 1.207031 -7.5 0.875 -7.796875 0.875 -8.390625 Z M 2.78125 0 L 0.953125 0 L 0.953125 -6.671875 L 2.78125 -6.671875 Z M 2.78125 0 "/></g></g></g><g fill="#ffffff" fill-opacity="1"><g transform="translate(58.680031, 22.098116)"><g><path d="M 6.921875 0 L 5.109375 0 L 5.109375 -3.890625 C 5.109375 -4.378906 5.023438 -4.742188 4.859375 -4.984375 C 4.703125 -5.222656 4.453125 -5.34375 4.109375 -5.34375 C 3.640625 -5.34375 3.300781 -5.171875 3.09375 -4.828125 C 2.882812 -4.484375 2.78125 -3.921875 2.78125 -3.140625 L 2.78125 0 L 0.953125 0 L 0.953125 -6.671875 L 2.34375 -6.671875 L 2.59375 -5.8125 L 2.6875 -5.8125 C 2.863281 -6.125 3.117188 -6.363281 3.453125 -6.53125 C 3.796875 -6.707031 4.1875 -6.796875 4.625 -6.796875 C 5.625 -6.796875 6.300781 -6.46875 6.65625 -5.8125 L 6.8125 -5.8125 C 7 -6.125 7.265625 -6.363281 7.609375 -6.53125 C 7.953125 -6.707031 8.34375 -6.796875 8.78125 -6.796875 C 9.539062 -6.796875 10.113281 -6.597656 10.5 -6.203125 C 10.882812 -5.816406 11.078125 -5.195312 11.078125 -4.34375 L 11.078125 0 L 9.265625 0 L 9.265625 -3.890625 C 9.265625 -4.378906 9.179688 -4.742188 9.015625 -4.984375 C 8.859375 -5.222656 8.601562 -5.34375 8.25 -5.34375 C 7.8125 -5.34375 7.476562 -5.179688 7.25 -4.859375 C 7.03125 -4.546875 6.921875 -4.039062 6.921875 -3.34375 Z M 6.921875 0 "/></g></g></g><g fill="#ffffff" fill-opacity="1"><g transform="translate(70.68359, 22.098116)"><g><path d="M 3.71875 -5.5 C 3.332031 -5.5 3.03125 -5.375 2.8125 -5.125 C 2.59375 -4.882812 2.46875 -4.539062 2.4375 -4.09375 L 4.984375 -4.09375 C 4.972656 -4.539062 4.851562 -4.882812 4.625 -5.125 C 4.40625 -5.375 4.101562 -5.5 3.71875 -5.5 Z M 3.96875 0.125 C 2.894531 0.125 2.054688 -0.171875 1.453125 -0.765625 C 0.847656 -1.359375 0.546875 -2.195312 0.546875 -3.28125 C 0.546875 -4.40625 0.820312 -5.269531 1.375 -5.875 C 1.9375 -6.488281 2.710938 -6.796875 3.703125 -6.796875 C 4.648438 -6.796875 5.382812 -6.523438 5.90625 -5.984375 C 6.425781 -5.453125 6.6875 -4.710938 6.6875 -3.765625 L 6.6875 -2.875 L 2.390625 -2.875 C 2.410156 -2.363281 2.5625 -1.960938 2.84375 -1.671875 C 3.132812 -1.378906 3.539062 -1.234375 4.0625 -1.234375 C 4.457031 -1.234375 4.832031 -1.273438 5.1875 -1.359375 C 5.550781 -1.441406 5.925781 -1.578125 6.3125 -1.765625 L 6.3125 -0.359375 C 6 -0.191406 5.660156 -0.0703125 5.296875 0 C 4.929688 0.0820312 4.488281 0.125 3.96875 0.125 Z M 3.96875 0.125 "/></g></g></g><g fill="#ffffff" fill-opacity="1"><g transform="translate(80.01273, 22.322524)"><g><path d="M 6 -2.28125 C 6 -1.519531 5.722656 -0.929688 5.171875 -0.515625 C 4.628906 -0.0976562 3.894531 0.109375 2.96875 0.109375 C 1.945312 0.109375 1.164062 -0.0195312 0.625 -0.28125 L 0.625 -1.234375 C 0.96875 -1.085938 1.347656 -0.96875 1.765625 -0.875 C 2.179688 -0.789062 2.59375 -0.75 3 -0.75 C 3.65625 -0.75 4.148438 -0.875 4.484375 -1.125 C 4.828125 -1.382812 5 -1.738281 5 -2.1875 C 5 -2.476562 4.9375 -2.71875 4.8125 -2.90625 C 4.695312 -3.09375 4.5 -3.265625 4.21875 -3.421875 C 3.9375 -3.585938 3.515625 -3.773438 2.953125 -3.984375 C 2.148438 -4.265625 1.578125 -4.597656 1.234375 -4.984375 C 0.898438 -5.378906 0.734375 -5.890625 0.734375 -6.515625 C 0.734375 -7.171875 0.976562 -7.691406 1.46875 -8.078125 C 1.96875 -8.472656 2.625 -8.671875 3.4375 -8.671875 C 4.289062 -8.671875 5.070312 -8.515625 5.78125 -8.203125 L 5.484375 -7.34375 C 4.773438 -7.632812 4.085938 -7.78125 3.421875 -7.78125 C 2.890625 -7.78125 2.472656 -7.664062 2.171875 -7.4375 C 1.878906 -7.21875 1.734375 -6.90625 1.734375 -6.5 C 1.734375 -6.207031 1.785156 -5.96875 1.890625 -5.78125 C 2.003906 -5.59375 2.191406 -5.414062 2.453125 -5.25 C 2.710938 -5.09375 3.109375 -4.921875 3.640625 -4.734375 C 4.535156 -4.410156 5.148438 -4.066406 5.484375 -3.703125 C 5.828125 -3.335938 6 -2.863281 6 -2.28125 Z M 6 -2.28125 "/></g></g></g><g fill="#ffffff" fill-opacity="1"><g transform="translate(86.583371, 22.322524)"><g><path d="M 3.734375 0.109375 C 2.785156 0.109375 2.035156 -0.175781 1.484375 -0.75 C 0.941406 -1.320312 0.671875 -2.125 0.671875 -3.15625 C 0.671875 -4.1875 0.925781 -5.003906 1.4375 -5.609375 C 1.945312 -6.222656 2.628906 -6.53125 3.484375 -6.53125 C 4.285156 -6.53125 4.921875 -6.265625 5.390625 -5.734375 C 5.859375 -5.203125 6.09375 -4.503906 6.09375 -3.640625 L 6.09375 -3.03125 L 1.671875 -3.03125 C 1.691406 -2.28125 1.882812 -1.707031 2.25 -1.3125 C 2.613281 -0.925781 3.125 -0.734375 3.78125 -0.734375 C 4.46875 -0.734375 5.148438 -0.878906 5.828125 -1.171875 L 5.828125 -0.296875 C 5.484375 -0.148438 5.15625 -0.046875 4.84375 0.015625 C 4.539062 0.078125 4.171875 0.109375 3.734375 0.109375 Z M 3.46875 -5.71875 C 2.957031 -5.71875 2.546875 -5.546875 2.234375 -5.203125 C 1.929688 -4.867188 1.753906 -4.410156 1.703125 -3.828125 L 5.0625 -3.828125 C 5.0625 -4.429688 4.921875 -4.894531 4.640625 -5.21875 C 4.367188 -5.550781 3.976562 -5.71875 3.46875 -5.71875 Z M 3.46875 -5.71875 "/></g></g></g><g fill="#ffffff" fill-opacity="1"><g transform="translate(93.300156, 22.322524)"><g><path d="M 3.953125 -6.53125 C 4.242188 -6.53125 4.5 -6.503906 4.71875 -6.453125 L 4.59375 -5.5625 C 4.320312 -5.613281 4.085938 -5.640625 3.890625 -5.640625 C 3.367188 -5.640625 2.921875 -5.429688 2.546875 -5.015625 C 2.179688 -4.597656 2 -4.070312 2 -3.4375 L 2 0 L 1.03125 0 L 1.03125 -6.40625 L 1.828125 -6.40625 L 1.9375 -5.21875 L 1.984375 -5.21875 C 2.222656 -5.644531 2.507812 -5.96875 2.84375 -6.1875 C 3.1875 -6.414062 3.554688 -6.53125 3.953125 -6.53125 Z M 3.953125 -6.53125 "/></g></g></g><g fill="#ffffff" fill-opacity="1"><g transform="translate(98.187216, 22.322524)"><g><path d="M 3.953125 -6.53125 C 4.242188 -6.53125 4.5 -6.503906 4.71875 -6.453125 L 4.59375 -5.5625 C 4.320312 -5.613281 4.085938 -5.640625 3.890625 -5.640625 C 3.367188 -5.640625 2.921875 -5.429688 2.546875 -5.015625 C 2.179688 -4.597656 2 -4.070312 2 -3.4375 L 2 0 L 1.03125 0 L 1.03125 -6.40625 L 1.828125 -6.40625 L 1.9375 -5.21875 L 1.984375 -5.21875 C 2.222656 -5.644531 2.507812 -5.96875 2.84375 -6.1875 C 3.1875 -6.414062 3.554688 -6.53125 3.953125 -6.53125 Z M 3.953125 -6.53125 "/></g></g></g><g fill="#ffffff" fill-opacity="1"><g transform="translate(103.074276, 22.322524)"><g><path d="M 4.96875 0 L 4.78125 -0.90625 L 4.734375 -0.90625 C 4.410156 -0.507812 4.085938 -0.238281 3.765625 -0.09375 C 3.453125 0.0390625 3.0625 0.109375 2.59375 0.109375 C 1.945312 0.109375 1.441406 -0.0507812 1.078125 -0.375 C 0.722656 -0.695312 0.546875 -1.160156 0.546875 -1.765625 C 0.546875 -3.066406 1.582031 -3.75 3.65625 -3.8125 L 4.75 -3.84375 L 4.75 -4.25 C 4.75 -4.75 4.640625 -5.117188 4.421875 -5.359375 C 4.203125 -5.597656 3.851562 -5.71875 3.375 -5.71875 C 2.84375 -5.71875 2.238281 -5.550781 1.5625 -5.21875 L 1.265625 -5.96875 C 1.585938 -6.132812 1.9375 -6.265625 2.3125 -6.359375 C 2.6875 -6.460938 3.0625 -6.515625 3.4375 -6.515625 C 4.207031 -6.515625 4.773438 -6.34375 5.140625 -6 C 5.503906 -5.664062 5.6875 -5.125 5.6875 -4.375 L 5.6875 0 Z M 2.78125 -0.6875 C 3.382812 -0.6875 3.859375 -0.847656 4.203125 -1.171875 C 4.546875 -1.503906 4.71875 -1.972656 4.71875 -2.578125 L 4.71875 -3.15625 L 3.75 -3.109375 C 2.976562 -3.085938 2.421875 -2.96875 2.078125 -2.75 C 1.734375 -2.539062 1.5625 -2.210938 1.5625 -1.765625 C 1.5625 -1.410156 1.664062 -1.140625 1.875 -0.953125 C 2.09375 -0.773438 2.394531 -0.6875 2.78125 -0.6875 Z M 2.78125 -0.6875 "/></g></g></g><g fill="#ffffff" fill-opacity="1"><g transform="translate(109.732603, 22.322524)"><g><path d="M 5.421875 0 L 5.421875 -4.15625 C 5.421875 -4.675781 5.300781 -5.0625 5.0625 -5.3125 C 4.820312 -5.570312 4.445312 -5.703125 3.9375 -5.703125 C 3.269531 -5.703125 2.78125 -5.519531 2.46875 -5.15625 C 2.15625 -4.789062 2 -4.191406 2 -3.359375 L 2 0 L 1.03125 0 L 1.03125 -6.40625 L 1.8125 -6.40625 L 1.984375 -5.53125 L 2.03125 -5.53125 C 2.226562 -5.851562 2.503906 -6.097656 2.859375 -6.265625 C 3.222656 -6.441406 3.625 -6.53125 4.0625 -6.53125 C 4.832031 -6.53125 5.410156 -6.34375 5.796875 -5.96875 C 6.191406 -5.59375 6.390625 -5 6.390625 -4.1875 L 6.390625 0 Z M 5.421875 0 "/></g></g></g><g fill="#ffffff" fill-opacity="1"><g transform="translate(117.080731, 22.322524)"><g><path d="M 6.5625 -3.21875 C 6.5625 -2.164062 6.296875 -1.347656 5.765625 -0.765625 C 5.242188 -0.179688 4.519531 0.109375 3.59375 0.109375 C 3.019531 0.109375 2.507812 -0.0195312 2.0625 -0.28125 C 1.625 -0.550781 1.28125 -0.9375 1.03125 -1.4375 C 0.789062 -1.945312 0.671875 -2.539062 0.671875 -3.21875 C 0.671875 -4.257812 0.929688 -5.070312 1.453125 -5.65625 C 1.972656 -6.238281 2.703125 -6.53125 3.640625 -6.53125 C 4.535156 -6.53125 5.242188 -6.226562 5.765625 -5.625 C 6.296875 -5.03125 6.5625 -4.226562 6.5625 -3.21875 Z M 1.671875 -3.21875 C 1.671875 -2.394531 1.832031 -1.769531 2.15625 -1.34375 C 2.488281 -0.914062 2.972656 -0.703125 3.609375 -0.703125 C 4.242188 -0.703125 4.726562 -0.914062 5.0625 -1.34375 C 5.394531 -1.769531 5.5625 -2.394531 5.5625 -3.21875 C 5.5625 -4.03125 5.394531 -4.644531 5.0625 -5.0625 C 4.726562 -5.488281 4.242188 -5.703125 3.609375 -5.703125 C 2.972656 -5.703125 2.488281 -5.492188 2.15625 -5.078125 C 1.832031 -4.660156 1.671875 -4.039062 1.671875 -3.21875 Z M 1.671875 -3.21875 "/></g></g></g><g fill="#ff3131" fill-opacity="1"><g transform="translate(124.541052, 20.8904)"><g><path d="M 0.453125 -0.546875 C 0.453125 -0.765625 0.507812 -0.925781 0.625 -1.03125 C 0.738281 -1.144531 0.90625 -1.203125 1.125 -1.203125 C 1.332031 -1.203125 1.492188 -1.144531 1.609375 -1.03125 C 1.734375 -0.914062 1.796875 -0.753906 1.796875 -0.546875 C 1.796875 -0.347656 1.734375 -0.1875 1.609375 -0.0625 C 1.492188 0.0507812 1.332031 0.109375 1.125 0.109375 C 0.90625 0.109375 0.738281 0.0507812 0.625 -0.0625 C 0.507812 -0.175781 0.453125 -0.335938 0.453125 -0.546875 Z M 0.453125 -0.546875 "/></g></g></g></svg>