<svg xmlns="http://www.w3.org/2000/svg" xmlns:xlink="http://www.w3.org/1999/xlink" width="1587" zoomAndPan="magnify" viewBox="0 0 1190.25 1134.000011" height="1511" preserveAspectRatio="xMidYMid meet" version="1.0"><defs><g/><clipPath id="532bd5d853"><path d="M 364 318 L 866 318 L 866 825 L 364 825 Z M 364 318 " clip-rule="nonzero"/></clipPath><clipPath id="368b903076"><path d="M 214.484375 538.035156 L 615.851562 185.390625 L 975.417969 594.644531 L 574.050781 947.285156 Z M 214.484375 538.035156 " clip-rule="nonzero"/></clipPath><clipPath id="26bd45847a"><path d="M 214.484375 538.035156 L 615.851562 185.390625 L 975.417969 594.644531 L 574.050781 947.285156 Z M 214.484375 538.035156 " clip-rule="nonzero"/></clipPath><clipPath id="68b22ba919"><path d="M 355 398 L 388 398 L 388 541 L 355 541 Z M 355 398 " clip-rule="nonzero"/></clipPath><clipPath id="906357b4de"><path d="M 214.484375 538.035156 L 615.851562 185.390625 L 975.417969 594.644531 L 574.050781 947.285156 Z M 214.484375 538.035156 " clip-rule="nonzero"/></clipPath><clipPath id="6903493d11"><path d="M 214.484375 538.035156 L 615.851562 185.390625 L 975.417969 594.644531 L 574.050781 947.285156 Z M 214.484375 538.035156 " clip-rule="nonzero"/></clipPath><clipPath id="01821036d8"><path d="M 364 443 L 447 443 L 447 562 L 364 562 Z M 364 443 " clip-rule="nonzero"/></clipPath><clipPath id="3b1a68b360"><path d="M 214.484375 538.035156 L 615.851562 185.390625 L 975.417969 594.644531 L 574.050781 947.285156 Z M 214.484375 538.035156 " clip-rule="nonzero"/></clipPath><clipPath id="5af57a60bb"><path d="M 214.484375 538.035156 L 615.851562 185.390625 L 975.417969 594.644531 L 574.050781 947.285156 Z M 214.484375 538.035156 " clip-rule="nonzero"/></clipPath><clipPath id="2fddf65b64"><path d="M 323 658 L 422 658 L 422 729 L 323 729 Z M 323 658 " clip-rule="nonzero"/></clipPath><clipPath id="82cf501306"><path d="M 214.484375 538.035156 L 615.851562 185.390625 L 975.417969 594.644531 L 574.050781 947.285156 Z M 214.484375 538.035156 " clip-rule="nonzero"/></clipPath><clipPath id="1bb8c97775"><path d="M 214.484375 538.035156 L 615.851562 185.390625 L 975.417969 594.644531 L 574.050781 947.285156 Z M 214.484375 538.035156 " clip-rule="nonzero"/></clipPath><clipPath id="85a2e1d0a5"><path d="M 393 599 L 418 599 L 418 717 L 393 717 Z M 393 599 " clip-rule="nonzero"/></clipPath><clipPath id="f8889cc279"><path d="M 214.484375 538.035156 L 615.851562 185.390625 L 975.417969 594.644531 L 574.050781 947.285156 Z M 214.484375 538.035156 " clip-rule="nonzero"/></clipPath><clipPath id="e58f694246"><path d="M 214.484375 538.035156 L 615.851562 185.390625 L 975.417969 594.644531 L 574.050781 947.285156 Z M 214.484375 538.035156 " clip-rule="nonzero"/></clipPath><clipPath id="18811cb699"><path d="M 321 577 L 392 577 L 392 684 L 321 684 Z M 321 577 " clip-rule="nonzero"/></clipPath><clipPath id="bf88590703"><path d="M 214.484375 538.035156 L 615.851562 185.390625 L 975.417969 594.644531 L 574.050781 947.285156 Z M 214.484375 538.035156 " clip-rule="nonzero"/></clipPath><clipPath id="491dad738b"><path d="M 214.484375 538.035156 L 615.851562 185.390625 L 975.417969 594.644531 L 574.050781 947.285156 Z M 214.484375 538.035156 " clip-rule="nonzero"/></clipPath><clipPath id="584abb25eb"><path d="M 369 526 L 406 526 L 406 638 L 369 638 Z M 369 526 " clip-rule="nonzero"/></clipPath><clipPath id="363a5bcf5f"><path d="M 214.484375 538.035156 L 615.851562 185.390625 L 975.417969 594.644531 L 574.050781 947.285156 Z M 214.484375 538.035156 " clip-rule="nonzero"/></clipPath><clipPath id="2ef891a0da"><path d="M 214.484375 538.035156 L 615.851562 185.390625 L 975.417969 594.644531 L 574.050781 947.285156 Z M 214.484375 538.035156 " clip-rule="nonzero"/></clipPath><clipPath id="d58a8bd740"><path d="M 310 500 L 371 500 L 371 617 L 310 617 Z M 310 500 " clip-rule="nonzero"/></clipPath><clipPath id="0870bf4d06"><path d="M 214.484375 538.035156 L 615.851562 185.390625 L 975.417969 594.644531 L 574.050781 947.285156 Z M 214.484375 538.035156 " clip-rule="nonzero"/></clipPath><clipPath id="f11a938ddc"><path d="M 214.484375 538.035156 L 615.851562 185.390625 L 975.417969 594.644531 L 574.050781 947.285156 Z M 214.484375 538.035156 " clip-rule="nonzero"/></clipPath><clipPath id="1ef6711ce7"><path d="M 843 662 L 855 662 L 855 675 L 843 675 Z M 843 662 " clip-rule="nonzero"/></clipPath><clipPath id="a5063823aa"><path d="M 214.484375 538.035156 L 615.851562 185.390625 L 975.417969 594.644531 L 574.050781 947.285156 Z M 214.484375 538.035156 " clip-rule="nonzero"/></clipPath><clipPath id="af4192116b"><path d="M 214.484375 538.035156 L 615.851562 185.390625 L 975.417969 594.644531 L 574.050781 947.285156 Z M 214.484375 538.035156 " clip-rule="nonzero"/></clipPath><clipPath id="6e5b4d1141"><path d="M 856 621 L 869 621 L 869 633 L 856 633 Z M 856 621 " clip-rule="nonzero"/></clipPath><clipPath id="d030602c99"><path d="M 214.484375 538.035156 L 615.851562 185.390625 L 975.417969 594.644531 L 574.050781 947.285156 Z M 214.484375 538.035156 " clip-rule="nonzero"/></clipPath><clipPath id="0a3fd953de"><path d="M 214.484375 538.035156 L 615.851562 185.390625 L 975.417969 594.644531 L 574.050781 947.285156 Z M 214.484375 538.035156 " clip-rule="nonzero"/></clipPath><clipPath id="3c41a233c8"><path d="M 862 577 L 874 577 L 874 590 L 862 590 Z M 862 577 " clip-rule="nonzero"/></clipPath><clipPath id="95ab113559"><path d="M 214.484375 538.035156 L 615.851562 185.390625 L 975.417969 594.644531 L 574.050781 947.285156 Z M 214.484375 538.035156 " clip-rule="nonzero"/></clipPath><clipPath id="bacb8fe165"><path d="M 214.484375 538.035156 L 615.851562 185.390625 L 975.417969 594.644531 L 574.050781 947.285156 Z M 214.484375 538.035156 " clip-rule="nonzero"/></clipPath><clipPath id="72c47defa9"><path d="M 860 534 L 873 534 L 873 546 L 860 546 Z M 860 534 " clip-rule="nonzero"/></clipPath><clipPath id="a268ddaa99"><path d="M 214.484375 538.035156 L 615.851562 185.390625 L 975.417969 594.644531 L 574.050781 947.285156 Z M 214.484375 538.035156 " clip-rule="nonzero"/></clipPath><clipPath id="c6529ca774"><path d="M 214.484375 538.035156 L 615.851562 185.390625 L 975.417969 594.644531 L 574.050781 947.285156 Z M 214.484375 538.035156 " clip-rule="nonzero"/></clipPath></defs><g clip-path="url(#532bd5d853)"><g clip-path="url(#368b903076)"><g clip-path="url(#26bd45847a)"><path fill="#fbfdfb" d="M 784.847656 761.855469 C 759.160156 784.425781 729.8125 801.296875 697.628906 811.988281 C 666.546875 822.3125 634.136719 826.472656 601.304688 824.347656 C 568.472656 822.222656 536.867188 813.929688 507.371094 799.691406 C 476.832031 784.945312 449.902344 764.441406 427.328125 738.75 C 404.757812 713.0625 387.890625 683.714844 377.199219 651.535156 C 366.875 620.449219 362.710938 588.039062 364.835938 555.207031 C 366.964844 522.375 375.253906 490.769531 389.492188 461.273438 C 404.238281 430.734375 424.746094 403.804688 450.433594 381.234375 C 476.125 358.664062 505.46875 341.792969 537.652344 331.101562 C 568.738281 320.777344 601.148438 316.613281 633.976562 318.742188 C 666.808594 320.867188 698.414062 329.160156 727.914062 343.398438 C 758.453125 358.140625 785.382812 378.648438 807.953125 404.335938 C 836.417969 436.738281 856.246094 476.015625 865.277344 517.921875 C 865.5 518.945312 864.851562 519.953125 863.828125 520.171875 C 862.800781 520.394531 861.792969 519.746094 861.574219 518.71875 C 852.675781 477.445312 833.144531 438.753906 805.105469 406.839844 C 714.289062 303.472656 556.300781 293.261719 452.9375 384.082031 C 349.570312 474.898438 339.359375 632.882812 430.175781 736.25 C 520.996094 839.617188 678.980469 849.824219 782.347656 759.007812 C 805.457031 738.703125 824.371094 714.726562 838.554688 687.742188 C 839.046875 686.8125 840.1875 686.457031 841.121094 686.945312 C 842.046875 687.433594 842.402344 688.574219 841.914062 689.507812 C 827.503906 716.902344 808.308594 741.246094 784.847656 761.855469 Z M 784.847656 761.855469 " fill-opacity="1" fill-rule="nonzero"/></g></g></g><g clip-path="url(#68b22ba919)"><g clip-path="url(#906357b4de)"><g clip-path="url(#6903493d11)"><path fill="#fbfdfb" d="M 369.695312 539.535156 C 369.539062 539.671875 369.367188 539.785156 369.164062 539.867188 C 368.285156 540.226562 367.273438 539.878906 366.804688 539.058594 C 359.582031 526.445312 356.097656 518.421875 355.859375 506.914062 C 355.714844 500.019531 357 493.085938 358.214844 487.132812 C 361.289062 472.050781 365.292969 456.980469 370.117188 442.339844 L 370.808594 440.242188 C 372.9375 433.832031 375.140625 427.203125 375.6875 420.507812 C 376.210938 413.984375 375.171875 407.347656 372.675781 401.316406 C 372.296875 400.410156 372.679688 399.359375 373.550781 398.90625 C 374.421875 398.453125 375.5 398.742188 376.027344 399.574219 C 382.101562 409.15625 385.863281 420.195312 386.902344 431.511719 C 388.453125 448.480469 383.875 465.511719 378.699219 481.386719 C 378.269531 482.707031 377.835938 484.019531 377.398438 485.339844 C 372.832031 499.15625 368.113281 513.433594 369.300781 527.753906 C 369.375 528.640625 369.421875 529.585938 369.472656 530.554688 C 369.605469 533.03125 369.738281 535.59375 370.277344 537.621094 C 370.464844 538.335938 370.222656 539.074219 369.695312 539.535156 Z M 359.644531 506.832031 C 359.816406 514.941406 361.667969 521.085938 365.585938 528.886719 C 365.566406 528.605469 365.546875 528.335938 365.527344 528.070312 C 364.273438 512.976562 369.117188 498.324219 373.804688 484.148438 C 374.238281 482.835938 374.671875 481.519531 375.101562 480.210938 C 380.148438 464.714844 384.621094 448.136719 383.132812 431.855469 C 382.621094 426.308594 381.425781 420.832031 379.585938 415.578125 C 379.648438 417.324219 379.609375 419.070312 379.46875 420.8125 C 378.882812 427.96875 376.605469 434.8125 374.40625 441.4375 L 373.714844 443.523438 C 368.9375 458.023438 364.972656 472.953125 361.925781 487.890625 C 360.699219 493.902344 359.511719 500.320312 359.644531 506.832031 Z M 359.644531 506.832031 " fill-opacity="1" fill-rule="nonzero"/></g></g></g><g clip-path="url(#01821036d8)"><g clip-path="url(#3b1a68b360)"><g clip-path="url(#5af57a60bb)"><path fill="#fbfdfb" d="M 367.953125 560.71875 C 367.539062 561.085938 366.96875 561.261719 366.386719 561.164062 C 365.449219 561.003906 364.769531 560.175781 364.808594 559.226562 C 365.335938 544.703125 366.621094 536.046875 372.492188 526.152344 C 376.015625 520.226562 380.765625 515.019531 384.941406 510.601562 C 395.515625 499.417969 406.875 488.730469 418.703125 478.851562 L 420.398438 477.4375 C 425.59375 473.117188 430.964844 468.648438 434.96875 463.25 C 438.863281 457.984375 441.480469 451.800781 442.546875 445.363281 C 442.707031 444.390625 443.582031 443.707031 444.566406 443.785156 C 445.546875 443.855469 446.308594 444.675781 446.3125 445.65625 C 446.410156 457.003906 443.769531 468.367188 438.679688 478.523438 C 431.039062 493.753906 418.152344 505.800781 405.375 516.546875 C 404.316406 517.433594 403.25 518.328125 402.183594 519.21875 C 391.011719 528.535156 379.460938 538.171875 372.90625 550.960938 C 372.496094 551.75 372.039062 552.578125 371.574219 553.4375 C 370.375 555.605469 369.136719 557.851562 368.519531 559.859375 C 368.410156 560.199219 368.210938 560.492188 367.953125 560.71875 Z M 375.757812 528.085938 C 371.617188 535.0625 369.945312 541.257812 369.152344 549.953125 C 369.285156 549.710938 369.410156 549.464844 369.535156 549.230469 C 376.441406 535.753906 388.292969 525.863281 399.757812 516.304688 C 400.820312 515.417969 401.882812 514.527344 402.941406 513.640625 C 415.414062 503.152344 427.96875 491.433594 435.300781 476.816406 C 437.796875 471.839844 439.667969 466.550781 440.882812 461.121094 C 440.015625 462.632812 439.0625 464.101562 438.023438 465.5 C 433.746094 471.269531 428.199219 475.882812 422.828125 480.347656 L 421.144531 481.753906 C 409.425781 491.542969 398.179688 502.121094 387.703125 513.199219 C 383.476562 517.664062 379.074219 522.492188 375.757812 528.085938 Z M 375.757812 528.085938 " fill-opacity="1" fill-rule="nonzero"/></g></g></g><g clip-path="url(#2fddf65b64)"><g clip-path="url(#82cf501306)"><g clip-path="url(#1bb8c97775)"><path fill="#fbfdfb" d="M 421.179688 728 C 420.742188 728.382812 420.152344 728.550781 419.5625 728.4375 C 411.722656 726.890625 405.511719 725.15625 400.035156 722.988281 C 384.078125 716.675781 370.726562 705.136719 359.761719 694.679688 C 357.03125 692.078125 354.285156 689.382812 351.640625 686.78125 C 342.894531 678.207031 333.851562 669.332031 323.792969 662.160156 C 323.082031 661.660156 322.8125 660.726562 323.132812 659.914062 C 323.453125 659.105469 324.285156 658.617188 325.152344 658.738281 C 344.359375 661.363281 359.972656 666.585938 372.890625 674.703125 C 387.652344 683.984375 398.992188 697.414062 407.21875 708.082031 C 411.449219 713.566406 415.5625 718.5625 419.792969 723.367188 C 420.390625 724.050781 420.945312 724.734375 421.46875 725.457031 C 421.929688 726.089844 421.953125 726.933594 421.539062 727.59375 C 421.429688 727.746094 421.3125 727.882812 421.179688 728 Z M 401.425781 719.460938 C 405.386719 721.03125 409.765625 722.359375 414.929688 723.566406 C 411.34375 719.410156 407.824219 715.078125 404.214844 710.402344 C 396.179688 699.988281 385.128906 686.882812 370.871094 677.917969 C 360.109375 671.15625 347.359375 666.472656 332.054688 663.679688 C 339.949219 670.015625 347.214844 677.144531 354.292969 684.078125 C 356.933594 686.671875 359.664062 689.351562 362.382812 691.9375 C 373.074219 702.140625 386.074219 713.390625 401.425781 719.460938 Z M 401.425781 719.460938 " fill-opacity="1" fill-rule="nonzero"/></g></g></g><g clip-path="url(#85a2e1d0a5)"><g clip-path="url(#f8889cc279)"><g clip-path="url(#e58f694246)"><path fill="#fbfdfb" d="M 414.085938 716.050781 C 413.953125 716.167969 413.804688 716.265625 413.636719 716.34375 C 412.828125 716.722656 411.855469 716.480469 411.320312 715.765625 C 409.675781 713.578125 408.070312 711.085938 406.40625 708.160156 C 402.761719 701.722656 400.292969 696.1875 398.644531 690.730469 C 394.34375 676.523438 395.316406 661.398438 396.261719 646.777344 C 397.242188 631.609375 398.25 615.921875 393.167969 601.761719 C 392.886719 600.972656 393.148438 600.105469 393.816406 599.601562 C 394.492188 599.105469 395.402344 599.101562 396.078125 599.601562 C 408.65625 608.902344 416.445312 625.921875 417.453125 646.296875 C 418.015625 657.683594 416.683594 669.140625 415.398438 680.226562 C 414.734375 685.976562 414.039062 691.914062 413.632812 697.75 C 413.1875 704 413.191406 709.160156 414.632812 714.023438 C 414.652344 714.082031 414.671875 714.148438 414.683594 714.203125 C 414.84375 714.890625 414.601562 715.601562 414.085938 716.050781 Z M 398.640625 606.878906 C 401.789062 619.929688 400.902344 633.667969 400.042969 647.019531 C 399.125 661.308594 398.167969 676.082031 402.269531 689.632812 C 403.828125 694.773438 406.160156 700.023438 409.625 706.148438 C 409.511719 703.234375 409.648438 700.316406 409.847656 697.480469 C 410.265625 691.5625 410.960938 685.578125 411.632812 679.785156 C 412.898438 668.859375 414.210938 657.554688 413.664062 646.480469 C 412.855469 630.054688 407.460938 616 398.640625 606.878906 Z M 398.640625 606.878906 " fill-opacity="1" fill-rule="nonzero"/></g></g></g><g clip-path="url(#18811cb699)"><g clip-path="url(#bf88590703)"><g clip-path="url(#491dad738b)"><path fill="#fbfdfb" d="M 390.734375 683.109375 C 390.667969 683.167969 390.605469 683.214844 390.527344 683.265625 C 389.792969 683.75 388.828125 683.664062 388.1875 683.070312 C 358.039062 654.769531 335.140625 619.125 321.96875 579.988281 C 321.671875 579.105469 322.058594 578.140625 322.878906 577.707031 C 323.699219 577.273438 324.71875 577.503906 325.28125 578.246094 C 330.652344 585.402344 336.835938 592.15625 342.8125 598.691406 C 348.996094 605.453125 355.398438 612.441406 360.984375 619.957031 C 373.863281 637.292969 382.40625 656.914062 391.269531 681.035156 C 391.539062 681.773438 391.320312 682.59375 390.734375 683.109375 Z M 329.414062 589.402344 C 341.761719 621.152344 360.6875 650.246094 384.75 674.441406 C 377.007812 654.1875 369.132812 637.269531 357.9375 622.210938 C 352.472656 614.855469 346.136719 607.941406 340.015625 601.25 C 336.488281 597.398438 332.886719 593.460938 329.414062 589.402344 Z M 329.414062 589.402344 " fill-opacity="1" fill-rule="nonzero"/></g></g></g><g clip-path="url(#584abb25eb)"><g clip-path="url(#363a5bcf5f)"><g clip-path="url(#2ef891a0da)"><path fill="#fbfdfb" d="M 373.601562 636.65625 C 373.285156 636.933594 372.875 637.109375 372.425781 637.125 C 371.519531 637.164062 370.71875 636.546875 370.507812 635.667969 C 369.316406 630.605469 369.058594 624.726562 369.707031 617.171875 C 372.453125 584.960938 383.726562 553.964844 402.320312 527.53125 C 402.808594 526.839844 403.691406 526.554688 404.488281 526.828125 C 405.285156 527.105469 405.808594 527.871094 405.765625 528.714844 C 404.914062 546.214844 404.03125 564.308594 397.730469 581.21875 C 395.136719 588.191406 391.351562 595.328125 387.6875 602.222656 C 381.914062 613.089844 375.945312 624.328125 374.230469 635.523438 C 374.15625 635.972656 373.929688 636.367188 373.601562 636.65625 Z M 373.480469 617.488281 C 373.269531 619.976562 373.160156 622.261719 373.152344 624.386719 C 375.949219 616.238281 380.1875 608.246094 384.332031 600.445312 C 388.105469 593.335938 391.667969 586.632812 394.179688 579.894531 C 399.472656 565.671875 400.824219 550.375 401.640625 535.3125 C 385.679688 559.929688 375.976562 588.199219 373.480469 617.488281 Z M 373.480469 617.488281 " fill-opacity="1" fill-rule="nonzero"/></g></g></g><g clip-path="url(#d58a8bd740)"><g clip-path="url(#0870bf4d06)"><g clip-path="url(#f11a938ddc)"><path fill="#fbfdfb" d="M 369.910156 615.671875 C 369.808594 615.757812 369.703125 615.835938 369.582031 615.902344 C 368.992188 616.234375 368.265625 616.222656 367.683594 615.878906 C 364.421875 613.933594 361.359375 611.175781 358.835938 607.902344 C 354.5 602.265625 351.898438 595.664062 349.734375 589.367188 C 347.25 582.164062 345.128906 574.746094 343.074219 567.566406 C 340.796875 559.59375 338.441406 551.351562 335.597656 543.453125 C 330.332031 528.816406 311.109375 503.695312 310.914062 503.445312 C 310.332031 502.6875 310.402344 501.617188 311.082031 500.945312 C 311.753906 500.277344 312.828125 500.207031 313.585938 500.796875 C 315.003906 501.90625 348.421875 528.1875 358.078125 547.085938 C 369.804688 570.03125 370.707031 601.714844 370.546875 614.273438 C 370.546875 614.816406 370.308594 615.320312 369.910156 615.671875 Z M 361.839844 605.589844 C 363.3125 607.5 364.988281 609.207031 366.769531 610.632812 C 366.683594 596.65625 365.070312 569.082031 354.707031 548.808594 C 348.9375 537.515625 333.660156 522.949219 322.855469 513.492188 C 328.820312 522.15625 336.105469 533.667969 339.167969 542.164062 C 342.050781 550.183594 344.425781 558.492188 346.722656 566.523438 C 348.761719 573.65625 350.871094 581.023438 353.324219 588.128906 C 355.382812 594.125 357.84375 600.386719 361.839844 605.589844 Z M 361.839844 605.589844 " fill-opacity="1" fill-rule="nonzero"/></g></g></g><g clip-path="url(#1ef6711ce7)"><g clip-path="url(#a5063823aa)"><g clip-path="url(#af4192116b)"><path fill="#fbfdfb" d="M 853.351562 664.667969 C 853.597656 664.949219 853.816406 665.25 854 665.574219 C 854.1875 665.894531 854.34375 666.234375 854.460938 666.585938 C 854.582031 666.941406 854.667969 667.300781 854.714844 667.671875 C 854.765625 668.042969 854.777344 668.414062 854.753906 668.785156 C 854.730469 669.160156 854.667969 669.527344 854.574219 669.886719 C 854.476562 670.246094 854.347656 670.59375 854.183594 670.929688 C 854.015625 671.265625 853.820312 671.582031 853.59375 671.878906 C 853.367188 672.171875 853.113281 672.445312 852.832031 672.691406 C 852.550781 672.9375 852.25 673.15625 851.925781 673.339844 C 851.605469 673.527344 851.265625 673.683594 850.914062 673.800781 C 850.558594 673.921875 850.199219 674.007812 849.828125 674.054688 C 849.457031 674.105469 849.085938 674.117188 848.714844 674.09375 C 848.339844 674.070312 847.972656 674.007812 847.613281 673.914062 C 847.253906 673.816406 846.90625 673.6875 846.570312 673.523438 C 846.234375 673.355469 845.917969 673.160156 845.621094 672.933594 C 845.328125 672.707031 845.054688 672.453125 844.808594 672.171875 C 844.5625 671.890625 844.347656 671.589844 844.160156 671.265625 C 843.972656 670.945312 843.816406 670.605469 843.699219 670.253906 C 843.578125 669.898438 843.492188 669.539062 843.445312 669.167969 C 843.394531 668.796875 843.382812 668.425781 843.40625 668.054688 C 843.429688 667.679688 843.492188 667.3125 843.585938 666.953125 C 843.683594 666.59375 843.8125 666.246094 843.976562 665.910156 C 844.144531 665.574219 844.339844 665.257812 844.566406 664.964844 C 844.792969 664.667969 845.046875 664.394531 845.328125 664.148438 C 845.609375 663.902344 845.910156 663.6875 846.234375 663.5 C 846.554688 663.3125 846.894531 663.15625 847.246094 663.039062 C 847.601562 662.917969 847.960938 662.832031 848.332031 662.785156 C 848.703125 662.734375 849.074219 662.722656 849.445312 662.746094 C 849.820312 662.769531 850.1875 662.832031 850.546875 662.925781 C 850.90625 663.023438 851.253906 663.152344 851.589844 663.316406 C 851.925781 663.484375 852.242188 663.679688 852.539062 663.90625 C 852.832031 664.132812 853.105469 664.386719 853.351562 664.667969 Z M 853.351562 664.667969 " fill-opacity="1" fill-rule="nonzero"/></g></g></g><g clip-path="url(#6e5b4d1141)"><g clip-path="url(#d030602c99)"><g clip-path="url(#0a3fd953de)"><path fill="#fbfdfb" d="M 866.65625 623.003906 C 866.902344 623.285156 867.121094 623.585938 867.308594 623.910156 C 867.496094 624.234375 867.648438 624.570312 867.769531 624.925781 C 867.890625 625.277344 867.972656 625.640625 868.023438 626.011719 C 868.070312 626.382812 868.085938 626.753906 868.058594 627.125 C 868.035156 627.496094 867.976562 627.863281 867.878906 628.226562 C 867.78125 628.585938 867.652344 628.933594 867.488281 629.269531 C 867.324219 629.601562 867.128906 629.917969 866.898438 630.214844 C 866.671875 630.511719 866.417969 630.78125 866.140625 631.03125 C 865.859375 631.277344 865.558594 631.492188 865.234375 631.679688 C 864.910156 631.867188 864.570312 632.019531 864.21875 632.140625 C 863.863281 632.261719 863.503906 632.34375 863.132812 632.394531 C 862.761719 632.445312 862.390625 632.457031 862.019531 632.433594 C 861.648438 632.40625 861.28125 632.347656 860.917969 632.25 C 860.558594 632.15625 860.210938 632.023438 859.875 631.859375 C 859.542969 631.695312 859.226562 631.5 858.929688 631.273438 C 858.632812 631.046875 858.359375 630.792969 858.113281 630.511719 C 857.867188 630.230469 857.652344 629.929688 857.464844 629.605469 C 857.277344 629.28125 857.125 628.945312 857.003906 628.589844 C 856.882812 628.238281 856.796875 627.875 856.75 627.503906 C 856.699219 627.136719 856.6875 626.765625 856.710938 626.390625 C 856.734375 626.019531 856.796875 625.652344 856.894531 625.292969 C 856.988281 624.929688 857.121094 624.582031 857.285156 624.246094 C 857.449219 623.914062 857.644531 623.597656 857.871094 623.300781 C 858.097656 623.003906 858.351562 622.734375 858.632812 622.488281 C 858.914062 622.242188 859.214844 622.023438 859.539062 621.835938 C 859.863281 621.648438 860.199219 621.496094 860.554688 621.375 C 860.90625 621.253906 861.269531 621.171875 861.640625 621.121094 C 862.007812 621.074219 862.378906 621.058594 862.753906 621.085938 C 863.125 621.109375 863.492188 621.167969 863.851562 621.265625 C 864.214844 621.359375 864.5625 621.492188 864.894531 621.65625 C 865.230469 621.820312 865.546875 622.015625 865.84375 622.242188 C 866.140625 622.472656 866.410156 622.726562 866.65625 623.003906 Z M 866.65625 623.003906 " fill-opacity="1" fill-rule="nonzero"/></g></g></g><g clip-path="url(#3c41a233c8)"><g clip-path="url(#95ab113559)"><g clip-path="url(#bacb8fe165)"><path fill="#fbfdfb" d="M 872.527344 579.667969 C 872.773438 579.949219 872.992188 580.25 873.179688 580.574219 C 873.367188 580.894531 873.519531 581.234375 873.640625 581.589844 C 873.761719 581.941406 873.84375 582.304688 873.894531 582.671875 C 873.941406 583.042969 873.957031 583.414062 873.929688 583.789062 C 873.90625 584.160156 873.847656 584.527344 873.75 584.886719 C 873.65625 585.246094 873.523438 585.59375 873.359375 585.929688 C 873.195312 586.265625 873 586.582031 872.773438 586.878906 C 872.542969 587.175781 872.289062 587.445312 872.011719 587.691406 C 871.730469 587.9375 871.429688 588.15625 871.105469 588.34375 C 870.78125 588.527344 870.445312 588.683594 870.089844 588.804688 C 869.738281 588.921875 869.375 589.007812 869.003906 589.058594 C 868.632812 589.105469 868.261719 589.117188 867.890625 589.09375 C 867.519531 589.070312 867.152344 589.011719 866.789062 588.914062 C 866.429688 588.816406 866.082031 588.6875 865.746094 588.523438 C 865.414062 588.355469 865.097656 588.160156 864.800781 587.933594 C 864.503906 587.707031 864.234375 587.453125 863.988281 587.171875 C 863.738281 586.894531 863.523438 586.589844 863.335938 586.269531 C 863.148438 585.945312 862.996094 585.605469 862.875 585.253906 C 862.753906 584.898438 862.671875 584.539062 862.621094 584.167969 C 862.570312 583.796875 862.558594 583.425781 862.582031 583.054688 C 862.609375 582.679688 862.667969 582.316406 862.765625 581.953125 C 862.859375 581.59375 862.992188 581.246094 863.15625 580.910156 C 863.320312 580.574219 863.515625 580.261719 863.742188 579.964844 C 863.96875 579.667969 864.222656 579.394531 864.503906 579.148438 C 864.785156 578.902344 865.085938 578.6875 865.410156 578.5 C 865.734375 578.3125 866.070312 578.160156 866.425781 578.039062 C 866.777344 577.917969 867.140625 577.832031 867.511719 577.785156 C 867.878906 577.734375 868.25 577.722656 868.625 577.746094 C 868.996094 577.769531 869.363281 577.832031 869.722656 577.925781 C 870.085938 578.023438 870.433594 578.152344 870.769531 578.320312 C 871.101562 578.484375 871.417969 578.679688 871.714844 578.90625 C 872.011719 579.132812 872.28125 579.386719 872.527344 579.667969 Z M 872.527344 579.667969 " fill-opacity="1" fill-rule="nonzero"/></g></g></g><g clip-path="url(#72c47defa9)"><g clip-path="url(#a268ddaa99)"><g clip-path="url(#c6529ca774)"><path fill="#fbfdfb" d="M 870.78125 535.96875 C 871.027344 536.25 871.246094 536.550781 871.433594 536.875 C 871.621094 537.195312 871.773438 537.535156 871.894531 537.886719 C 872.015625 538.242188 872.097656 538.601562 872.148438 538.972656 C 872.195312 539.34375 872.210938 539.714844 872.183594 540.085938 C 872.160156 540.460938 872.101562 540.828125 872.003906 541.1875 C 871.90625 541.546875 871.777344 541.894531 871.613281 542.230469 C 871.449219 542.566406 871.253906 542.882812 871.023438 543.175781 C 870.796875 543.472656 870.542969 543.746094 870.265625 543.992188 C 869.984375 544.238281 869.683594 544.453125 869.359375 544.640625 C 869.035156 544.828125 868.695312 544.984375 868.34375 545.101562 C 867.992188 545.222656 867.628906 545.308594 867.257812 545.355469 C 866.886719 545.40625 866.515625 545.417969 866.144531 545.394531 C 865.773438 545.371094 865.40625 545.308594 865.042969 545.214844 C 864.683594 545.117188 864.335938 544.988281 864 544.820312 C 863.667969 544.65625 863.351562 544.460938 863.054688 544.234375 C 862.757812 544.007812 862.484375 543.753906 862.238281 543.472656 C 861.992188 543.191406 861.777344 542.890625 861.589844 542.566406 C 861.402344 542.246094 861.25 541.90625 861.128906 541.554688 C 861.007812 541.199219 860.921875 540.835938 860.875 540.46875 C 860.824219 540.097656 860.8125 539.726562 860.835938 539.355469 C 860.863281 538.980469 860.921875 538.613281 861.019531 538.253906 C 861.113281 537.894531 861.246094 537.546875 861.410156 537.210938 C 861.574219 536.875 861.769531 536.558594 861.996094 536.261719 C 862.222656 535.96875 862.476562 535.695312 862.757812 535.449219 C 863.039062 535.203125 863.339844 534.984375 863.664062 534.800781 C 863.988281 534.613281 864.324219 534.457031 864.679688 534.339844 C 865.03125 534.21875 865.394531 534.132812 865.765625 534.085938 C 866.132812 534.035156 866.503906 534.023438 866.878906 534.046875 C 867.25 534.070312 867.617188 534.128906 867.976562 534.226562 C 868.339844 534.324219 868.6875 534.453125 869.019531 534.617188 C 869.355469 534.785156 869.671875 534.980469 869.96875 535.207031 C 870.265625 535.433594 870.535156 535.6875 870.78125 535.96875 Z M 870.78125 535.96875 " fill-opacity="1" fill-rule="nonzero"/></g></g></g><path stroke-linecap="butt" transform="matrix(2.265719, 0, 0, 2.265719, 430.102623, 248.017347)" fill="none" stroke-linejoin="miter" d="M 46.595884 245.22877 C 48.873376 245.601168 50.221596 245.971843 53.290435 245.971843 C 77.830801 245.971843 95.168016 220.083256 95.168016 192.84645 L 95.168016 68.560202 C 95.168016 31.051406 96.283487 17.526103 112.689707 17.526103 L 112.689707 15.619285 L 61.284933 15.619285 L 61.284933 17.526103 C 77.644602 17.526103 78.760073 31.051406 78.760073 68.560202 L 78.760073 193.265398 C 78.760073 222.174549 68.674283 243.508151 50.035397 243.508151 C 48.873376 243.508151 46.968282 243.323676 46.968282 243.323676 Z M 46.595884 245.22877 " stroke="#fffdf9" stroke-width="20.466818" stroke-opacity="1" stroke-miterlimit="4"/><g fill="#000000" fill-opacity="1"><g transform="translate(557.266076, 714.755367)"><g><path d="M -21.566406 88.859375 C -16.390625 89.71875 -13.371094 90.582031 -6.46875 90.582031 C 49.171875 90.582031 88.425781 31.917969 88.425781 -29.761719 L 88.425781 -311.433594 C 88.425781 -396.410156 91.015625 -427.035156 128.109375 -427.035156 L 128.109375 -431.347656 L 11.644531 -431.347656 L 11.644531 -427.035156 C 48.742188 -427.035156 51.332031 -396.410156 51.332031 -311.433594 L 51.332031 -28.898438 C 51.332031 36.664062 28.46875 84.976562 -13.804688 84.976562 C -16.390625 84.976562 -20.703125 84.542969 -20.703125 84.542969 Z M -21.566406 88.859375 "/></g></g></g><path stroke-linecap="butt" transform="matrix(2.265719, 0, 0, 2.265719, 430.102623, 353.066154)" fill="none" stroke-linejoin="miter" d="M 38.949648 43.429353 C 38.949648 87.712007 125.868473 76.214206 125.868473 116.840115 C 125.868473 131.832599 110.350148 146.263038 90.645789 146.263038 C 58.521254 146.263038 40.827157 114.138502 40.827157 114.138502 L 39.477212 114.138502 L 39.477212 132.22741 C 49.459559 139.640897 65.24339 148.702592 83.068516 148.702592 C 114.237919 148.702592 133.678495 130.086119 133.678495 111.304136 C 133.678495 64.088844 48.373397 77.169339 48.373397 40.200176 C 48.373397 25.207691 62.145242 9.953149 87.252826 9.953149 C 116.149909 9.953149 124.385775 32.621178 124.385775 32.621178 L 125.704686 32.621178 L 125.704686 14.565027 C 115.325805 11.039311 103.859037 8.337698 87.252826 8.337698 C 56.083423 8.337698 38.949648 24.680127 38.949648 43.429353 Z M 38.949648 43.429353 " stroke="#fffdf9" stroke-width="15.014745" stroke-opacity="1" stroke-miterlimit="4"/><g fill="#000000" fill-opacity="1"><g transform="translate(499.985879, 683.861062)"><g><path d="M 18.347656 -232.394531 C 18.347656 -132.097656 215.269531 -158.089844 215.269531 -66.046875 C 215.269531 -32.105469 180.105469 0.613281 135.460938 0.613281 C 62.683594 0.613281 22.628906 -72.164062 22.628906 -72.164062 L 19.570312 -72.164062 L 19.570312 -31.191406 C 42.199219 -14.371094 77.972656 6.117188 118.335938 6.117188 C 188.972656 6.117188 233.003906 -36.082031 233.003906 -78.585938 C 233.003906 -185.609375 39.75 -155.949219 39.75 -239.734375 C 39.75 -273.675781 70.941406 -308.226562 127.816406 -308.226562 C 193.253906 -308.226562 211.90625 -256.855469 211.90625 -256.855469 L 214.964844 -256.855469 L 214.964844 -297.832031 C 191.417969 -305.78125 165.429688 -311.898438 127.816406 -311.898438 C 57.179688 -311.898438 18.347656 -274.898438 18.347656 -232.394531 Z M 18.347656 -232.394531 "/></g></g></g><g fill="#f13024" fill-opacity="1"><g transform="translate(416.617118, 875.204067)"><g><path d="M 7.640625 -25.84375 L 7.640625 -14.671875 L 22.359375 -14.671875 L 22.359375 -12.0625 L 7.640625 -12.0625 L 7.640625 0 L 4.640625 0 L 4.640625 -28.453125 L 24.140625 -28.453125 L 24.140625 -25.84375 Z M 7.640625 -25.84375 "/></g></g></g><g fill="#f13024" fill-opacity="1"><g transform="translate(460.827594, 875.204067)"><g><path d="M 16.09375 0.25 C 12.40625 0.25 9.53125 -0.804688 7.46875 -2.921875 C 5.414062 -5.035156 4.390625 -8.113281 4.390625 -12.15625 L 4.390625 -28.453125 L 7.390625 -28.453125 L 7.390625 -12.28125 C 7.390625 -8.96875 8.132812 -6.5 9.625 -4.875 C 11.113281 -3.25 13.269531 -2.4375 16.09375 -2.4375 C 18.9375 -2.4375 21.101562 -3.25 22.59375 -4.875 C 24.082031 -6.5 24.828125 -8.96875 24.828125 -12.28125 L 24.828125 -28.453125 L 27.75 -28.453125 L 27.75 -12.15625 C 27.75 -8.113281 26.726562 -5.035156 24.6875 -2.921875 C 22.644531 -0.804688 19.78125 0.25 16.09375 0.25 Z M 16.09375 0.25 "/></g></g></g><g fill="#f13024" fill-opacity="1"><g transform="translate(511.495698, 875.204067)"><g><path d="M 4.640625 -28.453125 L 7.640625 -28.453125 L 7.640625 -2.59375 L 23.578125 -2.59375 L 23.578125 0 L 4.640625 0 Z M 4.640625 -28.453125 "/></g></g></g><g fill="#f13024" fill-opacity="1"><g transform="translate(553.91916, 875.204067)"><g><path d="M 4.640625 -28.453125 L 7.640625 -28.453125 L 7.640625 -2.59375 L 23.578125 -2.59375 L 23.578125 0 L 4.640625 0 Z M 4.640625 -28.453125 "/></g></g></g><g fill="#f13024" fill-opacity="1"><g transform="translate(596.342621, 875.204067)"><g><path d="M 12.484375 0.25 C 10.367188 0.25 8.34375 -0.0859375 6.40625 -0.765625 C 4.46875 -1.441406 2.96875 -2.335938 1.90625 -3.453125 L 3.09375 -5.765625 C 4.125 -4.742188 5.488281 -3.910156 7.1875 -3.265625 C 8.894531 -2.628906 10.660156 -2.3125 12.484375 -2.3125 C 15.023438 -2.3125 16.929688 -2.78125 18.203125 -3.71875 C 19.472656 -4.65625 20.109375 -5.867188 20.109375 -7.359375 C 20.109375 -8.492188 19.765625 -9.398438 19.078125 -10.078125 C 18.390625 -10.753906 17.539062 -11.273438 16.53125 -11.640625 C 15.53125 -12.003906 14.140625 -12.40625 12.359375 -12.84375 C 10.210938 -13.382812 8.503906 -13.90625 7.234375 -14.40625 C 5.960938 -14.90625 4.867188 -15.671875 3.953125 -16.703125 C 3.046875 -17.734375 2.59375 -19.128906 2.59375 -20.890625 C 2.59375 -22.328125 2.972656 -23.632812 3.734375 -24.8125 C 4.492188 -25.988281 5.660156 -26.925781 7.234375 -27.625 C 8.804688 -28.332031 10.757812 -28.6875 13.09375 -28.6875 C 14.71875 -28.6875 16.304688 -28.460938 17.859375 -28.015625 C 19.421875 -27.566406 20.769531 -26.953125 21.90625 -26.171875 L 20.890625 -23.78125 C 19.691406 -24.5625 18.414062 -25.144531 17.0625 -25.53125 C 15.707031 -25.925781 14.382812 -26.125 13.09375 -26.125 C 10.59375 -26.125 8.710938 -25.644531 7.453125 -24.6875 C 6.191406 -23.726562 5.5625 -22.488281 5.5625 -20.96875 C 5.5625 -19.832031 5.90625 -18.914062 6.59375 -18.21875 C 7.289062 -17.53125 8.160156 -17.003906 9.203125 -16.640625 C 10.242188 -16.273438 11.644531 -15.875 13.40625 -15.4375 C 15.5 -14.925781 17.1875 -14.421875 18.46875 -13.921875 C 19.757812 -13.421875 20.847656 -12.660156 21.734375 -11.640625 C 22.628906 -10.628906 23.078125 -9.253906 23.078125 -7.515625 C 23.078125 -6.078125 22.691406 -4.769531 21.921875 -3.59375 C 21.148438 -2.414062 19.960938 -1.476562 18.359375 -0.78125 C 16.765625 -0.09375 14.804688 0.25 12.484375 0.25 Z M 12.484375 0.25 "/></g></g></g><g fill="#f13024" fill-opacity="1"><g transform="translate(639.822051, 875.204067)"><g><path d="M 10.15625 -25.84375 L 0.15625 -25.84375 L 0.15625 -28.453125 L 23.171875 -28.453125 L 23.171875 -25.84375 L 13.171875 -25.84375 L 13.171875 0 L 10.15625 0 Z M 10.15625 -25.84375 "/></g></g></g><g fill="#f13024" fill-opacity="1"><g transform="translate(681.636314, 875.204067)"><g><path d="M 22.46875 -7.59375 L 6.625 -7.59375 L 3.203125 0 L 0.078125 0 L 13.09375 -28.453125 L 16.046875 -28.453125 L 29.0625 0 L 25.890625 0 Z M 21.375 -10.03125 L 14.546875 -25.3125 L 7.71875 -10.03125 Z M 21.375 -10.03125 "/></g></g></g><g fill="#f13024" fill-opacity="1"><g transform="translate(729.258356, 875.204067)"><g><path d="M 16.984375 0.25 C 14.171875 0.25 11.628906 -0.375 9.359375 -1.625 C 7.097656 -2.875 5.320312 -4.601562 4.03125 -6.8125 C 2.75 -9.019531 2.109375 -11.488281 2.109375 -14.21875 C 2.109375 -16.957031 2.75 -19.429688 4.03125 -21.640625 C 5.320312 -23.847656 7.101562 -25.570312 9.375 -26.8125 C 11.65625 -28.0625 14.207031 -28.6875 17.03125 -28.6875 C 19.144531 -28.6875 21.09375 -28.332031 22.875 -27.625 C 24.664062 -26.925781 26.1875 -25.898438 27.4375 -24.546875 L 25.515625 -22.640625 C 23.296875 -24.890625 20.492188 -26.015625 17.109375 -26.015625 C 14.859375 -26.015625 12.8125 -25.5 10.96875 -24.46875 C 9.125 -23.4375 7.679688 -22.023438 6.640625 -20.234375 C 5.597656 -18.453125 5.078125 -16.445312 5.078125 -14.21875 C 5.078125 -12 5.597656 -9.992188 6.640625 -8.203125 C 7.679688 -6.421875 9.125 -5.015625 10.96875 -3.984375 C 12.8125 -2.953125 14.859375 -2.4375 17.109375 -2.4375 C 20.523438 -2.4375 23.328125 -3.578125 25.515625 -5.859375 L 27.4375 -3.9375 C 26.1875 -2.582031 24.660156 -1.546875 22.859375 -0.828125 C 21.054688 -0.109375 19.097656 0.25 16.984375 0.25 Z M 16.984375 0.25 "/></g></g></g><g fill="#f13024" fill-opacity="1"><g transform="translate(776.961629, 875.204067)"><g><path d="M 13.453125 -13.375 L 7.640625 -7.484375 L 7.640625 0 L 4.640625 0 L 4.640625 -28.453125 L 7.640625 -28.453125 L 7.640625 -11.25 L 24.34375 -28.453125 L 27.796875 -28.453125 L 15.484375 -15.5625 L 28.65625 0 L 25.078125 0 Z M 13.453125 -13.375 "/></g></g></g></svg>